# Blender v2.63 (sub 0) OBJ File: ''
# www.blender.org
v 1.000000 -1.000000 -1.000000
v 1.000000 -1.000000 1.000000
v -1.000000 -1.000000 1.000000
v -1.000000 -1.000000 -1.000000
v 1.000000 1.000000 -1.000000
v 1.000000 1.000000 1.00000
v -1.000000 1.000000 1.000000
v -1.000000 1.000000 -1.000000
vt 0.250001 0.500001
vt 0.250000 0.750001
vt 0.000001 0.750000
vt 0.000001 0.500001
vt 0.250001 0.250001
vt 0.000001 0.250001
vt 0.000000 0.000000
vt 0.250001 0.000000
vt 0.500001 0.000000
vt 0.500001 0.250000
vt 0.250001 0.250000
vt 0.250000 1.000000
vt 0.000000 1.000000
vt 0.250001 0.500000
vt 0.500001 0.500000
vn 0.000000 -1.000000 0.000000
vn 0.000000 1.000000 0.000000
vn 1.000000 0.000000 0.000000
vn -0.000000 -0.000000 1.000000
vn -1.000000 -0.000000 -0.000000
vn 0.000000 0.000000 -1.000000
f 1/1/1 2/2/1 3/3/1
f 1/1/1 3/3/1 4/4/1
f 5/5/2 8/6/2 7/7/2
f 5/5/2 7/7/2 6/8/2
f 1/9/3 5/10/3 6/11/3
f 1/9/3 6/11/3 2/8/3
f 2/2/4 6/12/4 7/13/4
f 2/2/4 7/13/4 3/3/4
f 3/14/5 7/11/5 8/10/5
f 3/14/5 8/10/5 4/15/5
f 5/5/6 1/1/6 4/4/6
f 5/5/6 4/4/6 8/6/6
